<mxfile host="app.diagrams.net" modified="2023-11-25T15:51:11.023Z" agent="Mozilla/5.0 (Windows NT 10.0; Win64; x64) AppleWebKit/537.36 (KHTML, like Gecko) Chrome/119.0.0.0 Safari/537.36" etag="rV11WxBu2zH2hrK8q7Fq" version="22.1.4" type="google">
  <diagram name="Page-1" id="TSq14_-wewQ9hBOg658D">
    <mxGraphModel grid="1" page="1" gridSize="10" guides="1" tooltips="1" connect="1" arrows="1" fold="1" pageScale="1" pageWidth="1100" pageHeight="850" math="0" shadow="0">
      <root>
        <mxCell id="0" />
        <mxCell id="1" parent="0" />
        <mxCell id="SnCM8bKwD-f9ggdWLkhg-1" value="" style="whiteSpace=wrap;html=1;aspect=fixed;" vertex="1" parent="1">
          <mxGeometry x="240" y="40" width="600" height="600" as="geometry" />
        </mxCell>
        <mxCell id="SnCM8bKwD-f9ggdWLkhg-2" value="User&lt;br&gt;" style="shape=umlActor;verticalLabelPosition=bottom;verticalAlign=top;html=1;outlineConnect=0;" vertex="1" parent="1">
          <mxGeometry x="100" y="170" width="30" height="60" as="geometry" />
        </mxCell>
        <mxCell id="SnCM8bKwD-f9ggdWLkhg-14" style="edgeStyle=orthogonalEdgeStyle;rounded=0;orthogonalLoop=1;jettySize=auto;html=1;exitX=0;exitY=0.3333333333333333;exitDx=0;exitDy=0;exitPerimeter=0;entryX=1;entryY=0.5;entryDx=0;entryDy=0;" edge="1" parent="1" source="SnCM8bKwD-f9ggdWLkhg-3" target="SnCM8bKwD-f9ggdWLkhg-12">
          <mxGeometry relative="1" as="geometry" />
        </mxCell>
        <mxCell id="SnCM8bKwD-f9ggdWLkhg-3" value="Admin" style="shape=umlActor;verticalLabelPosition=bottom;verticalAlign=top;html=1;outlineConnect=0;" vertex="1" parent="1">
          <mxGeometry x="950" y="110" width="30" height="60" as="geometry" />
        </mxCell>
        <mxCell id="SnCM8bKwD-f9ggdWLkhg-20" style="edgeStyle=orthogonalEdgeStyle;rounded=0;orthogonalLoop=1;jettySize=auto;html=1;exitX=0;exitY=1;exitDx=0;exitDy=0;exitPerimeter=0;" edge="1" parent="1" source="SnCM8bKwD-f9ggdWLkhg-4" target="SnCM8bKwD-f9ggdWLkhg-18">
          <mxGeometry relative="1" as="geometry" />
        </mxCell>
        <mxCell id="SnCM8bKwD-f9ggdWLkhg-4" value="Staff" style="shape=umlActor;verticalLabelPosition=bottom;verticalAlign=top;html=1;outlineConnect=0;" vertex="1" parent="1">
          <mxGeometry x="950" y="365" width="30" height="60" as="geometry" />
        </mxCell>
        <mxCell id="SnCM8bKwD-f9ggdWLkhg-5" value="Login" style="ellipse;whiteSpace=wrap;html=1;" vertex="1" parent="1">
          <mxGeometry x="410" y="140" width="90" height="50" as="geometry" />
        </mxCell>
        <mxCell id="SnCM8bKwD-f9ggdWLkhg-7" value="Create account" style="ellipse;whiteSpace=wrap;html=1;" vertex="1" parent="1">
          <mxGeometry x="410" y="70" width="90" height="50" as="geometry" />
        </mxCell>
        <mxCell id="SnCM8bKwD-f9ggdWLkhg-12" value="Manage account" style="ellipse;whiteSpace=wrap;html=1;" vertex="1" parent="1">
          <mxGeometry x="570" y="60" width="90" height="60" as="geometry" />
        </mxCell>
        <mxCell id="SnCM8bKwD-f9ggdWLkhg-13" value="Inherits" style="endArrow=open;endSize=12;dashed=1;html=1;rounded=0;entryX=0;entryY=0.5;entryDx=0;entryDy=0;" edge="1" parent="1" source="SnCM8bKwD-f9ggdWLkhg-7" target="SnCM8bKwD-f9ggdWLkhg-12">
          <mxGeometry width="160" relative="1" as="geometry">
            <mxPoint x="400" y="105" as="sourcePoint" />
            <mxPoint x="465" y="150" as="targetPoint" />
          </mxGeometry>
        </mxCell>
        <mxCell id="SnCM8bKwD-f9ggdWLkhg-15" value="Browse Foods" style="ellipse;whiteSpace=wrap;html=1;" vertex="1" parent="1">
          <mxGeometry x="405" y="220" width="100" height="50" as="geometry" />
        </mxCell>
        <mxCell id="SnCM8bKwD-f9ggdWLkhg-16" value="Place Order" style="ellipse;whiteSpace=wrap;html=1;" vertex="1" parent="1">
          <mxGeometry x="410" y="290" width="90" height="60" as="geometry" />
        </mxCell>
        <mxCell id="SnCM8bKwD-f9ggdWLkhg-17" value="Cancel Order" style="ellipse;whiteSpace=wrap;html=1;" vertex="1" parent="1">
          <mxGeometry x="413.75" y="365" width="82.5" height="55" as="geometry" />
        </mxCell>
        <mxCell id="SnCM8bKwD-f9ggdWLkhg-18" value="Prepare Order" style="ellipse;whiteSpace=wrap;html=1;" vertex="1" parent="1">
          <mxGeometry x="570" y="353" width="120" height="80" as="geometry" />
        </mxCell>
        <mxCell id="SnCM8bKwD-f9ggdWLkhg-26" value="" style="endArrow=classic;html=1;rounded=0;exitX=0;exitY=1;exitDx=0;exitDy=0;exitPerimeter=0;entryX=1;entryY=0;entryDx=0;entryDy=0;" edge="1" parent="1" source="SnCM8bKwD-f9ggdWLkhg-3" target="SnCM8bKwD-f9ggdWLkhg-16">
          <mxGeometry width="50" height="50" relative="1" as="geometry">
            <mxPoint x="520" y="360" as="sourcePoint" />
            <mxPoint x="570" y="310" as="targetPoint" />
          </mxGeometry>
        </mxCell>
        <mxCell id="SnCM8bKwD-f9ggdWLkhg-27" value="" style="endArrow=classic;html=1;rounded=0;exitX=0.5;exitY=0.5;exitDx=0;exitDy=0;exitPerimeter=0;" edge="1" parent="1" source="SnCM8bKwD-f9ggdWLkhg-2" target="SnCM8bKwD-f9ggdWLkhg-16">
          <mxGeometry width="50" height="50" relative="1" as="geometry">
            <mxPoint x="160" y="425" as="sourcePoint" />
            <mxPoint x="210" y="375" as="targetPoint" />
          </mxGeometry>
        </mxCell>
        <mxCell id="SnCM8bKwD-f9ggdWLkhg-28" value="" style="endArrow=classic;html=1;rounded=0;entryX=0;entryY=0;entryDx=0;entryDy=0;exitX=1;exitY=1;exitDx=0;exitDy=0;exitPerimeter=0;" edge="1" parent="1" source="SnCM8bKwD-f9ggdWLkhg-2" target="SnCM8bKwD-f9ggdWLkhg-17">
          <mxGeometry width="50" height="50" relative="1" as="geometry">
            <mxPoint x="200" y="380" as="sourcePoint" />
            <mxPoint x="250" y="330" as="targetPoint" />
          </mxGeometry>
        </mxCell>
        <mxCell id="SnCM8bKwD-f9ggdWLkhg-29" value="" style="endArrow=classic;html=1;rounded=0;exitX=0.75;exitY=0.1;exitDx=0;exitDy=0;exitPerimeter=0;entryX=0;entryY=0.5;entryDx=0;entryDy=0;" edge="1" parent="1" source="SnCM8bKwD-f9ggdWLkhg-2" target="SnCM8bKwD-f9ggdWLkhg-7">
          <mxGeometry width="50" height="50" relative="1" as="geometry">
            <mxPoint x="140" y="140" as="sourcePoint" />
            <mxPoint x="190" y="90" as="targetPoint" />
          </mxGeometry>
        </mxCell>
        <mxCell id="SnCM8bKwD-f9ggdWLkhg-30" value="" style="endArrow=classic;html=1;rounded=0;exitX=1;exitY=0.3333333333333333;exitDx=0;exitDy=0;exitPerimeter=0;entryX=0;entryY=0.5;entryDx=0;entryDy=0;" edge="1" parent="1" source="SnCM8bKwD-f9ggdWLkhg-2" target="SnCM8bKwD-f9ggdWLkhg-15">
          <mxGeometry width="50" height="50" relative="1" as="geometry">
            <mxPoint x="150" y="370" as="sourcePoint" />
            <mxPoint x="200" y="320" as="targetPoint" />
          </mxGeometry>
        </mxCell>
        <mxCell id="SnCM8bKwD-f9ggdWLkhg-31" value="Deliver order" style="ellipse;whiteSpace=wrap;html=1;" vertex="1" parent="1">
          <mxGeometry x="413.75" y="450" width="75" height="50" as="geometry" />
        </mxCell>
        <mxCell id="SnCM8bKwD-f9ggdWLkhg-32" value="Delivery Staf" style="shape=umlActor;verticalLabelPosition=bottom;verticalAlign=top;html=1;outlineConnect=0;" vertex="1" parent="1">
          <mxGeometry x="940" y="520" width="30" height="60" as="geometry" />
        </mxCell>
        <mxCell id="SnCM8bKwD-f9ggdWLkhg-33" value="" style="endArrow=classic;html=1;rounded=0;entryX=1;entryY=0.5;entryDx=0;entryDy=0;exitX=0;exitY=1;exitDx=0;exitDy=0;exitPerimeter=0;" edge="1" parent="1" source="SnCM8bKwD-f9ggdWLkhg-32" target="SnCM8bKwD-f9ggdWLkhg-31">
          <mxGeometry width="50" height="50" relative="1" as="geometry">
            <mxPoint x="710" y="540" as="sourcePoint" />
            <mxPoint x="1006" y="683" as="targetPoint" />
          </mxGeometry>
        </mxCell>
        <mxCell id="SnCM8bKwD-f9ggdWLkhg-34" value="System" style="text;align=center;fontStyle=1;verticalAlign=middle;spacingLeft=3;spacingRight=3;strokeColor=none;rotatable=0;points=[[0,0.5],[1,0.5]];portConstraint=eastwest;html=1;" vertex="1" parent="1">
          <mxGeometry x="510" width="80" height="26" as="geometry" />
        </mxCell>
        <mxCell id="SnCM8bKwD-f9ggdWLkhg-35" value="Inherits" style="endArrow=open;endSize=12;dashed=1;html=1;rounded=0;entryX=0.5;entryY=0;entryDx=0;entryDy=0;exitX=0;exitY=0.5;exitDx=0;exitDy=0;" edge="1" parent="1" source="SnCM8bKwD-f9ggdWLkhg-18" target="SnCM8bKwD-f9ggdWLkhg-31">
          <mxGeometry width="160" relative="1" as="geometry">
            <mxPoint x="510" y="331.5" as="sourcePoint" />
            <mxPoint x="598" y="375" as="targetPoint" />
          </mxGeometry>
        </mxCell>
        <mxCell id="SnCM8bKwD-f9ggdWLkhg-36" value="" style="endArrow=classic;html=1;rounded=0;exitX=0;exitY=0.3333333333333333;exitDx=0;exitDy=0;exitPerimeter=0;entryX=1;entryY=0;entryDx=0;entryDy=0;" edge="1" parent="1" source="SnCM8bKwD-f9ggdWLkhg-4">
          <mxGeometry width="50" height="50" relative="1" as="geometry">
            <mxPoint x="960" y="180" as="sourcePoint" />
            <mxPoint x="497" y="309" as="targetPoint" />
          </mxGeometry>
        </mxCell>
      </root>
    </mxGraphModel>
  </diagram>
</mxfile>
